# xmcd CD database file
#
# Track frame offsets:
#	150
#	24459
#	43004
#	59913
#	81083
#	99431
#	117811
#	133918
#	146344
#	172616
#
# Disc length: 2576 seconds
#
# Revision: 0
# Processed by: cddbd v1.5.2PL0 Copyright (c) Steve Scherf et al.
# Submitted via: CDex 2.02
#
DISCID=810a0e0a
DTITLE=The Jellyrollers - The Jellyrollers
DYEAR=2007
DGENRE=Blues
TTITLE0=Reuben
TTITLE1=Rollin' and Tumblin'
TTITLE2=Reno Factory
TTITLE3=Ash Lee
TTITLE4=Jellyroll
TTITLE5=Blue Moon Blues
TTITLE6=Last Kind Words
TTITLE7=Keep Your Hands Off Her
TTITLE8=Pretty Thing
TTITLE9=Spectre Blues
EXTD=YEAR: 2007
EXTT0=
EXTT1=
EXTT2=
EXTT3=
EXTT4=
EXTT5=
EXTT6=
EXTT7=
EXTT8=
EXTT9=
PLAYORDER=
